<svg width="200" height="200" viewBox="0 0 200 200" fill="none" xmlns="http://www.w3.org/2000/svg">
<path d="M46.5434 78.8265C46.0374 75.4979 48.6141 72.5 51.9809 72.5H143.156C146.479 72.5 149.044 75.4249 148.609 78.7198L133.693 191.72C133.332 194.455 130.999 196.5 128.24 196.5H69.1569C66.4385 196.5 64.1279 194.514 63.7194 191.827L46.5434 78.8265Z" fill="#F5F5F5" stroke="#D9D9D9"/>
<path d="M47.3847 59.6312C47.5535 58.9659 48.1523 58.5 48.8387 58.5H146.161C146.848 58.5 147.447 58.9659 147.615 59.6312L148.883 64.6312C149.124 65.5792 148.407 66.5 147.429 66.5H47.5706C46.5926 66.5 45.8762 65.5792 46.1166 64.6312L47.3847 59.6312Z" fill="#F5F5F5" stroke="#D9D9D9"/>
<path d="M42.7297 65.7684C42.8438 65.0383 43.4727 64.5 44.2118 64.5H150.788C151.527 64.5 152.156 65.0383 152.27 65.7684L154.145 77.7684C154.287 78.6781 153.584 79.5 152.663 79.5H42.3368C41.416 79.5 40.7126 78.6781 40.8547 77.7684L42.7297 65.7684Z" fill="#F5F5F5" stroke="#D9D9D9"/>
<path d="M49.3351 110.79C49.1584 109.583 50.0941 108.5 51.314 108.5H144.186C145.406 108.5 146.342 109.583 146.165 110.79L143.75 127.29C143.607 128.272 142.764 129 141.771 129H53.7286C52.7359 129 51.8934 128.272 51.7497 127.29L49.3351 110.79Z" fill="#3F2305"/>
<circle cx="97" cy="119" r="22.5" fill="#D9D9D9" stroke="#3F2305" stroke-width="5"/>
<path fill-rule="evenodd" clip-rule="evenodd" d="M84.0367 121.709C84.2472 121.48 84.4674 121.263 84.6952 121.049C86.4029 119.447 88.65 118.02 91.1944 117.585C92.3465 117.388 93.5984 117.308 94.7447 117.236C95.3049 117.201 95.8399 117.167 96.3257 117.122C97.4932 117.013 98.7485 117.041 99.8831 117.067H99.8832C100.347 117.077 100.791 117.087 101.201 117.087C101.793 117.087 102.349 117.103 102.88 117.119H102.88C104.1 117.154 105.187 117.185 106.274 117.009C106.876 116.912 107.434 116.741 108.095 116.502L108.258 116.444C109.048 116.16 109.532 115.987 109.944 115.661C110.017 115.603 110.087 115.544 110.156 115.482C110.083 115.185 109.994 114.889 109.887 114.595C108.281 110.184 103.403 107.909 98.9921 109.515L89.5951 112.935C85.884 114.286 83.6852 117.952 84.0367 121.709ZM110.288 118.885C109.944 119.031 109.617 119.146 109.332 119.247C109.255 119.274 109.182 119.3 109.112 119.325C108.381 119.588 107.623 119.83 106.753 119.971C105.366 120.195 103.831 120.151 102.505 120.113H102.505C102.039 120.1 101.6 120.087 101.201 120.087C100.641 120.087 100.114 120.075 99.6072 120.063L99.6071 120.063H99.607C98.5578 120.039 97.5937 120.017 96.6036 120.109C95.9197 120.172 95.2917 120.211 94.6917 120.248C93.659 120.311 92.7093 120.369 91.7002 120.542C89.9186 120.846 88.1855 121.888 86.748 123.237C86.1072 123.838 85.7102 124.316 85.4085 124.966C85.3478 125.096 85.2954 125.221 85.2445 125.35C87.3073 128.74 91.538 130.319 95.4095 128.91L104.806 125.49C107.794 124.402 109.802 121.813 110.288 118.885Z" fill="#3F2305"/>
</svg>
