<svg width="1000" height="500" viewBox="0 0 1000 500" fill="none" xmlns="http://www.w3.org/2000/svg">
<path d="M267.105 229.7C266.172 229.9 265.439 230.267 264.905 230.8C264.772 230.933 264.639 231.167 264.505 231.5C264.439 231.767 264.372 231.967 264.305 232.1C264.172 232.3 264.039 233.467 263.905 235.6C263.839 237.733 263.772 240.267 263.705 243.2C263.639 246.133 263.605 249.2 263.605 252.4C263.605 255.533 263.705 258.267 263.905 260.6C264.105 262.533 264.605 264.433 265.405 266.3C266.272 268.1 267.672 269.267 269.605 269.8C271.072 269.933 272.439 269.733 273.705 269.2C275.039 268.6 276.039 267.633 276.705 266.3C277.439 264.767 277.739 263.167 277.605 261.5C277.539 259.767 277.672 258.067 278.005 256.4C278.939 256.533 279.972 256.567 281.105 256.5C282.305 256.433 283.505 256.4 284.705 256.4C285.905 256.4 287.072 256.433 288.205 256.5C289.405 256.567 290.472 256.733 291.405 257C292.539 260.467 292.839 263.933 292.305 267.4C291.772 270.8 290.605 273.867 288.805 276.6C287.005 279.333 284.639 281.6 281.705 283.4C278.839 285.133 275.572 286.033 271.905 286.1C269.505 286.433 267.039 286.433 264.505 286.1C261.972 285.833 259.605 285.2 257.405 284.2C255.205 283.133 253.339 281.667 251.805 279.8C250.339 277.933 249.472 275.6 249.205 272.8C249.072 270.4 248.972 267.9 248.905 265.3C248.839 262.7 248.772 259.8 248.705 256.6C248.705 253.333 248.705 249.667 248.705 245.6C248.772 241.467 248.839 236.7 248.905 231.3C248.772 230.167 248.805 229.033 249.005 227.9C249.272 226.7 249.605 225.6 250.005 224.6C250.605 222.867 251.339 221.267 252.205 219.8C253.139 218.333 254.239 217.033 255.505 215.9C256.239 215.367 257.039 214.933 257.905 214.6C258.772 214.2 259.672 213.867 260.605 213.6C263.672 212.6 266.705 212.2 269.705 212.4C272.705 212.6 275.505 213.3 278.105 214.5C280.772 215.633 283.172 217.167 285.305 219.1C287.439 221.033 289.139 223.267 290.405 225.8C291.672 228.267 292.439 230.967 292.705 233.9C292.972 236.833 292.572 239.833 291.505 242.9C289.039 243.433 286.605 243.633 284.205 243.5C281.872 243.3 279.439 242.967 276.905 242.5C276.705 241.233 276.572 239.8 276.505 238.2C276.505 236.6 276.339 235.133 276.005 233.8C275.672 232.4 275.039 231.267 274.105 230.4C273.239 229.533 271.839 229.133 269.905 229.2C269.039 229.333 268.105 229.5 267.105 229.7Z" fill="black"/>
<path d="M334.034 219.7C335.967 221.433 337.334 223.467 338.134 225.8C338.6 226.8 338.934 227.833 339.134 228.9C339.4 229.9 339.6 230.933 339.734 232C339.867 233.667 339.934 235.333 339.934 237C340 238.6 340 240.233 339.934 241.9C339.734 245.433 339.667 248.867 339.734 252.2C339.8 255.533 339.7 258.933 339.434 262.4L339.134 265.7C339 268.033 338.634 270.4 338.034 272.8C337.434 275.133 336.534 277.267 335.334 279.2C334.2 280.8 332.7 282.1 330.834 283.1C329.034 284.033 327.1 284.767 325.034 285.3C323.167 285.833 321.267 286.167 319.334 286.3C317.467 286.433 315.567 286.433 313.634 286.3C312.234 286.167 310.867 285.967 309.534 285.7C308.267 285.5 307.034 285.133 305.834 284.6C304.7 284.067 303.667 283.4 302.734 282.6C301.8 281.733 301.034 280.633 300.434 279.3C299.5 277.633 298.867 275.867 298.534 274C298.267 272.067 298.1 270.133 298.034 268.2C297.834 263 297.6 257.8 297.334 252.6C297.134 247.333 297.2 242.067 297.534 236.8C297.6 233.8 297.967 230.8 298.634 227.8C299.367 224.733 300.767 222.033 302.834 219.7C303.5 219.033 304.267 218.433 305.134 217.9C307.334 216.833 309.7 216.067 312.234 215.6C314.834 215.067 317.4 214.867 319.934 215C322.534 215.133 325.034 215.6 327.434 216.4C329.9 217.133 332.1 218.233 334.034 219.7ZM327.434 255V250.2L327.234 243.4C327.234 243.333 327.167 242.667 327.034 241.4C326.967 240.067 326.9 238.833 326.834 237.7C326.7 235.833 326.167 234.133 325.234 232.6C324.367 231.067 323.167 229.933 321.634 229.2C320.3 228.667 318.934 228.567 317.534 228.9C316.134 229.233 314.9 229.8 313.834 230.6C311.5 232.4 309.934 234.7 309.134 237.5C308.6 240.033 308.267 242.7 308.134 245.5C308.067 248.3 308.1 251.1 308.234 253.9C308.567 256.233 308.8 258.633 308.934 261.1C309.067 263.5 309.467 265.8 310.134 268C310.8 269.333 311.767 270.367 313.034 271.1C314.3 271.833 315.667 272.267 317.134 272.4C318.6 272.467 320.067 272.267 321.534 271.8C323 271.267 324.234 270.433 325.234 269.3C325.834 268.5 326.267 267.867 326.534 267.4C326.8 266.867 326.967 266.3 327.034 265.7C327.1 265.1 327.1 264.4 327.034 263.6C327.034 262.733 327.1 261.6 327.234 260.2C327.3 258.867 327.334 257.7 327.334 256.7C327.4 255.7 327.434 255.133 327.434 255Z" fill="black"/>
<path d="M378.373 258.7C378.373 258.833 378.273 258.9 378.073 258.9C376.007 259.233 373.84 259.5 371.573 259.7C369.373 259.833 367.273 260.067 365.273 260.4H365.173C364.84 264.6 364.64 268.8 364.573 273C364.507 277.133 364.44 281.1 364.373 284.9C363.04 285.033 361.44 285.133 359.573 285.2C357.773 285.267 355.973 285.3 354.173 285.3C352.373 285.3 350.773 285.267 349.373 285.2C348.04 285.133 347.24 285.033 346.973 284.9L346.873 284.8C346.873 280.8 346.873 277.067 346.873 273.6C346.873 270.067 346.873 266.667 346.873 263.4C346.94 260.133 346.973 256.867 346.973 253.6C346.973 250.267 346.973 246.767 346.973 243.1C347.04 239.433 347.073 235.5 347.073 231.3C347.073 227.033 347.073 222.3 347.073 217.1V217C348.207 216.8 349.84 216.6 351.973 216.4C354.107 216.2 356.507 216 359.173 215.8C361.907 215.6 364.773 215.467 367.773 215.4C370.84 215.267 373.84 215.233 376.773 215.3C379.707 215.3 382.473 215.433 385.073 215.7C387.673 215.967 389.907 216.333 391.773 216.8C391.773 217.667 391.773 218.767 391.773 220.1C391.84 221.433 391.873 222.833 391.873 224.3C391.873 225.7 391.873 227.067 391.873 228.4C391.873 229.667 391.84 230.733 391.773 231.6C389.973 231.733 387.94 231.867 385.673 232C383.473 232.133 381.173 232.267 378.773 232.4C376.44 232.467 374.073 232.567 371.673 232.7C369.34 232.833 367.14 233 365.073 233.2C364.34 234.933 364.04 236.6 364.173 238.2C364.307 239.8 364.673 241.133 365.273 242.2C365.34 242.267 365.407 242.3 365.473 242.3C366.407 242.433 367.44 242.533 368.573 242.6C369.773 242.6 370.94 242.6 372.073 242.6C373.207 242.6 374.307 242.567 375.373 242.5C376.44 242.433 377.34 242.367 378.073 242.3C378.273 242.767 378.373 243.667 378.373 245C378.44 246.333 378.44 247.833 378.373 249.5C378.307 251.1 378.24 252.733 378.173 254.4C378.173 256.067 378.24 257.5 378.373 258.7Z" fill="black"/>
<path d="M427.788 258.7C427.788 258.833 427.687 258.9 427.487 258.9C425.421 259.233 423.254 259.5 420.987 259.7C418.787 259.833 416.688 260.067 414.688 260.4H414.587C414.254 264.6 414.054 268.8 413.987 273C413.921 277.133 413.854 281.1 413.788 284.9C412.454 285.033 410.854 285.133 408.987 285.2C407.187 285.267 405.387 285.3 403.587 285.3C401.787 285.3 400.188 285.267 398.788 285.2C397.454 285.133 396.654 285.033 396.388 284.9L396.288 284.8C396.288 280.8 396.288 277.067 396.288 273.6C396.288 270.067 396.288 266.667 396.288 263.4C396.354 260.133 396.388 256.867 396.388 253.6C396.388 250.267 396.388 246.767 396.388 243.1C396.454 239.433 396.487 235.5 396.487 231.3C396.487 227.033 396.487 222.3 396.487 217.1V217C397.621 216.8 399.254 216.6 401.388 216.4C403.521 216.2 405.921 216 408.587 215.8C411.321 215.6 414.188 215.467 417.188 215.4C420.254 215.267 423.254 215.233 426.188 215.3C429.121 215.3 431.887 215.433 434.487 215.7C437.087 215.967 439.321 216.333 441.188 216.8C441.188 217.667 441.188 218.767 441.188 220.1C441.254 221.433 441.288 222.833 441.288 224.3C441.288 225.7 441.288 227.067 441.288 228.4C441.288 229.667 441.254 230.733 441.188 231.6C439.387 231.733 437.354 231.867 435.087 232C432.887 232.133 430.587 232.267 428.188 232.4C425.854 232.467 423.487 232.567 421.087 232.7C418.754 232.833 416.554 233 414.487 233.2C413.754 234.933 413.454 236.6 413.587 238.2C413.721 239.8 414.087 241.133 414.688 242.2C414.754 242.267 414.821 242.3 414.888 242.3C415.821 242.433 416.854 242.533 417.987 242.6C419.187 242.6 420.354 242.6 421.487 242.6C422.621 242.6 423.721 242.567 424.788 242.5C425.854 242.433 426.754 242.367 427.487 242.3C427.687 242.767 427.788 243.667 427.788 245C427.854 246.333 427.854 247.833 427.788 249.5C427.721 251.1 427.654 252.733 427.587 254.4C427.587 256.067 427.654 257.5 427.788 258.7Z" fill="black"/>
<path d="M474.702 271.3C478.968 271.5 483.368 271.533 487.902 271.4V271.6C488.035 273.733 488.068 275.967 488.002 278.3C487.935 280.567 487.635 282.7 487.102 284.7C480.302 284.633 473.368 284.733 466.302 285C459.302 285.2 452.568 285.033 446.102 284.5C446.102 278.7 446.035 272.967 445.902 267.3C445.768 261.567 445.668 255.867 445.602 250.2C445.535 244.533 445.535 238.867 445.602 233.2C445.668 227.533 445.868 221.833 446.202 216.1C448.802 215.967 451.602 215.867 454.602 215.8C457.668 215.667 460.735 215.567 463.802 215.5C466.868 215.433 469.835 215.367 472.702 215.3C475.568 215.233 478.102 215.2 480.302 215.2C482.502 215.2 484.268 215.233 485.602 215.3C486.935 215.367 487.602 215.433 487.602 215.5C487.935 217.833 488.002 220.2 487.802 222.6C487.668 225 487.602 227.367 487.602 229.7V229.8C485.468 230.267 483.302 230.567 481.102 230.7C478.968 230.767 476.802 230.8 474.602 230.8C472.402 230.733 470.202 230.7 468.002 230.7C465.802 230.7 463.602 230.8 461.402 231H461.102L461.002 231.1C461.068 233.033 460.968 235.033 460.702 237.1C460.502 239.1 460.635 241 461.102 242.8L461.202 242.9C463.202 243.033 465.235 243.1 467.302 243.1C469.368 243.1 471.435 243.133 473.502 243.2V243.3C473.835 245.567 473.935 247.833 473.802 250.1C473.668 252.367 473.635 254.733 473.702 257.2C472.702 257.467 471.568 257.633 470.302 257.7C469.035 257.7 467.802 257.7 466.602 257.7C465.468 257.7 464.435 257.733 463.502 257.8C462.568 257.867 461.935 258.033 461.602 258.3C461.268 260.233 461.135 262.4 461.202 264.8C461.335 267.2 461.468 269.2 461.602 270.8L461.702 270.9C466.102 270.9 470.435 271.033 474.702 271.3Z" fill="black"/>
<path d="M522.846 271.3C527.113 271.5 531.513 271.533 536.046 271.4V271.6C536.179 273.733 536.213 275.967 536.146 278.3C536.079 280.567 535.779 282.7 535.246 284.7C528.446 284.633 521.513 284.733 514.446 285C507.446 285.2 500.713 285.033 494.246 284.5C494.246 278.7 494.179 272.967 494.046 267.3C493.913 261.567 493.813 255.867 493.746 250.2C493.679 244.533 493.679 238.867 493.746 233.2C493.813 227.533 494.013 221.833 494.346 216.1C496.946 215.967 499.746 215.867 502.746 215.8C505.813 215.667 508.879 215.567 511.946 215.5C515.013 215.433 517.979 215.367 520.846 215.3C523.713 215.233 526.246 215.2 528.446 215.2C530.646 215.2 532.413 215.233 533.746 215.3C535.079 215.367 535.746 215.433 535.746 215.5C536.079 217.833 536.146 220.2 535.946 222.6C535.813 225 535.746 227.367 535.746 229.7V229.8C533.613 230.267 531.446 230.567 529.246 230.7C527.113 230.767 524.946 230.8 522.746 230.8C520.546 230.733 518.346 230.7 516.146 230.7C513.946 230.7 511.746 230.8 509.546 231H509.246L509.146 231.1C509.213 233.033 509.113 235.033 508.846 237.1C508.646 239.1 508.779 241 509.246 242.8L509.346 242.9C511.346 243.033 513.379 243.1 515.446 243.1C517.513 243.1 519.579 243.133 521.646 243.2V243.3C521.979 245.567 522.079 247.833 521.946 250.1C521.813 252.367 521.779 254.733 521.846 257.2C520.846 257.467 519.713 257.633 518.446 257.7C517.179 257.7 515.946 257.7 514.746 257.7C513.613 257.7 512.579 257.733 511.646 257.8C510.713 257.867 510.079 258.033 509.746 258.3C509.413 260.233 509.279 262.4 509.346 264.8C509.479 267.2 509.613 269.2 509.746 270.8L509.846 270.9C514.246 270.9 518.579 271.033 522.846 271.3Z" fill="black"/>
<path d="M603.01 225.2C604.743 228.467 605.143 232.6 604.21 237.6H604.11C601.777 238 599.277 238.267 596.61 238.4C593.944 238.467 591.444 238.167 589.11 237.5C589.51 235.7 589.143 234.2 588.01 233C586.877 231.8 585.51 231.033 583.91 230.7C582.31 230.367 580.743 230.533 579.21 231.2C577.743 231.867 576.877 233.133 576.61 235C576.477 235.467 576.41 235.933 576.41 236.4C576.477 236.8 576.543 237.233 576.61 237.7C577.143 239.3 578.01 240.367 579.21 240.9C580.41 241.433 581.71 241.8 583.11 242C586.643 242.4 589.91 243.533 592.91 245.4C595.977 247.267 598.477 249.633 600.41 252.5C601.61 254.033 602.51 255.7 603.11 257.5C603.71 259.233 604.043 261.033 604.11 262.9C604.243 264.767 604.11 266.667 603.71 268.6C603.377 270.467 602.81 272.267 602.01 274C601.21 276.067 600.144 277.833 598.81 279.3C597.477 280.767 595.943 281.967 594.21 282.9C592.543 283.833 590.71 284.533 588.71 285C586.777 285.4 584.777 285.567 582.71 285.5C579.777 285.433 576.843 284.933 573.91 284C571.043 283 568.477 281.633 566.21 279.9C563.943 278.167 562.144 276.067 560.81 273.6C559.477 271.067 558.91 268.2 559.11 265V264.7V264.4C561.444 264.067 564.01 264 566.81 264.2C569.61 264.333 572.143 264.367 574.41 264.3C574.543 266.433 575.377 268.033 576.91 269.1C578.51 270.167 580.177 270.7 581.91 270.7C583.71 270.633 585.243 270.033 586.51 268.9C587.843 267.767 588.31 266.033 587.91 263.7C587.71 262.1 587.11 260.833 586.11 259.9C585.11 258.9 583.91 258.1 582.51 257.5C581.177 256.9 579.71 256.467 578.11 256.2C576.51 255.867 575.01 255.567 573.61 255.3C572.277 255.033 571.043 254.6 569.91 254C568.777 253.4 567.743 252.7 566.81 251.9C563.743 248.967 561.743 245.733 560.81 242.2C559.944 238.667 559.91 235.233 560.71 231.9C561.51 228.567 563.01 225.533 565.21 222.8C567.477 220.067 570.21 218.033 573.41 216.7C575.01 216.033 576.777 215.6 578.71 215.4C580.643 215.133 582.577 215.067 584.51 215.2C586.51 215.267 588.444 215.533 590.31 216C592.243 216.467 594.01 217.067 595.61 217.8C598.81 219.467 601.277 221.933 603.01 225.2Z" fill="black"/>
<path d="M647.245 214.3C648.512 214.3 649.645 214.333 650.645 214.4L653.345 284.4C652.212 284.6 650.979 284.733 649.645 284.8C648.379 284.867 647.112 284.9 645.845 284.9C644.645 284.9 643.445 284.9 642.245 284.9C641.112 284.9 640.145 284.933 639.345 285H639.245C638.912 282.8 638.679 280.533 638.545 278.2C638.479 275.8 638.412 273.433 638.345 271.1C638.345 268.767 638.312 266.433 638.245 264.1C638.179 261.767 638.012 259.533 637.745 257.4L637.645 257.3C635.712 256.967 633.779 256.8 631.845 256.8C629.912 256.8 627.979 257.033 626.045 257.5C625.845 259.833 625.745 262.133 625.745 264.4C625.812 266.667 625.879 268.933 625.945 271.2C626.012 273.467 626.012 275.7 625.945 277.9C625.945 280.033 625.779 282.167 625.445 284.3C624.645 284.767 623.579 285 622.245 285C620.912 285 619.579 284.933 618.245 284.8C616.912 284.667 615.645 284.567 614.445 284.5C613.312 284.433 612.445 284.567 611.845 284.9C611.712 283.033 611.545 280.5 611.345 277.3C611.212 274.033 611.079 270.4 610.945 266.4C610.812 262.333 610.679 258.033 610.545 253.5C610.479 248.967 610.412 244.433 610.345 239.9C610.279 235.3 610.245 230.9 610.245 226.7C610.312 222.433 610.379 218.6 610.445 215.2V215.1H610.545H610.745C611.745 215.3 612.779 215.367 613.845 215.3C614.979 215.233 616.079 215.167 617.145 215.1C618.279 215.033 619.379 215 620.445 215C621.512 215 622.512 215.133 623.445 215.4C624.045 220 624.345 224.467 624.345 228.8C624.345 233.133 624.745 237.433 625.545 241.7H625.645C627.312 242.1 629.112 242.233 631.045 242.1C632.979 241.9 634.779 241.733 636.445 241.6H636.545C636.945 237 637.145 232.7 637.145 228.7C637.212 224.7 637.145 220.3 636.945 215.5C637.745 215.233 638.712 215 639.845 214.8C641.045 214.6 642.279 214.467 643.545 214.4C644.812 214.267 646.045 214.233 647.245 214.3Z" fill="black"/>
<path d="M695.948 219.7C697.881 221.433 699.248 223.467 700.048 225.8C700.514 226.8 700.848 227.833 701.048 228.9C701.314 229.9 701.514 230.933 701.648 232C701.781 233.667 701.848 235.333 701.848 237C701.914 238.6 701.914 240.233 701.848 241.9C701.648 245.433 701.581 248.867 701.648 252.2C701.714 255.533 701.614 258.933 701.348 262.4L701.048 265.7C700.914 268.033 700.548 270.4 699.948 272.8C699.348 275.133 698.448 277.267 697.248 279.2C696.114 280.8 694.614 282.1 692.748 283.1C690.948 284.033 689.014 284.767 686.948 285.3C685.081 285.833 683.181 286.167 681.248 286.3C679.381 286.433 677.481 286.433 675.548 286.3C674.148 286.167 672.781 285.967 671.448 285.7C670.181 285.5 668.948 285.133 667.748 284.6C666.614 284.067 665.581 283.4 664.648 282.6C663.714 281.733 662.948 280.633 662.348 279.3C661.414 277.633 660.781 275.867 660.448 274C660.181 272.067 660.014 270.133 659.948 268.2C659.748 263 659.514 257.8 659.248 252.6C659.048 247.333 659.114 242.067 659.448 236.8C659.514 233.8 659.881 230.8 660.548 227.8C661.281 224.733 662.681 222.033 664.748 219.7C665.414 219.033 666.181 218.433 667.048 217.9C669.248 216.833 671.614 216.067 674.148 215.6C676.748 215.067 679.314 214.867 681.848 215C684.448 215.133 686.948 215.6 689.348 216.4C691.814 217.133 694.014 218.233 695.948 219.7ZM689.348 255V250.2L689.148 243.4C689.148 243.333 689.081 242.667 688.948 241.4C688.881 240.067 688.814 238.833 688.748 237.7C688.614 235.833 688.081 234.133 687.148 232.6C686.281 231.067 685.081 229.933 683.548 229.2C682.214 228.667 680.848 228.567 679.448 228.9C678.048 229.233 676.814 229.8 675.748 230.6C673.414 232.4 671.848 234.7 671.048 237.5C670.514 240.033 670.181 242.7 670.048 245.5C669.981 248.3 670.014 251.1 670.148 253.9C670.481 256.233 670.714 258.633 670.848 261.1C670.981 263.5 671.381 265.8 672.048 268C672.714 269.333 673.681 270.367 674.948 271.1C676.214 271.833 677.581 272.267 679.048 272.4C680.514 272.467 681.981 272.267 683.448 271.8C684.914 271.267 686.148 270.433 687.148 269.3C687.748 268.5 688.181 267.867 688.448 267.4C688.714 266.867 688.881 266.3 688.948 265.7C689.014 265.1 689.014 264.4 688.948 263.6C688.948 262.733 689.014 261.6 689.148 260.2C689.214 258.867 689.248 257.7 689.248 256.7C689.314 255.7 689.348 255.133 689.348 255Z" fill="black"/>
<path d="M750.487 226.2C752.021 228.867 752.888 232.1 753.088 235.9V236C753.088 236.467 753.088 236.933 753.088 237.4C753.088 237.8 753.054 238.2 752.987 238.6C752.587 241.8 751.521 244.733 749.787 247.4C748.121 250.067 746.021 252.333 743.487 254.2C740.954 256.067 738.154 257.433 735.088 258.3C732.021 259.1 728.888 259.233 725.688 258.7C725.754 259.633 725.787 260.567 725.787 261.5C725.787 262.367 725.787 263.667 725.787 265.4C725.787 267.067 725.787 269.333 725.787 272.2C725.854 275.067 725.954 278.933 726.088 283.8V283.9C726.021 283.9 725.954 283.933 725.888 284C725.888 284 725.854 284 725.787 284C724.854 284.267 723.654 284.467 722.188 284.6C720.788 284.667 719.288 284.733 717.688 284.8C716.154 284.8 714.621 284.767 713.088 284.7C711.554 284.633 710.221 284.533 709.088 284.4C708.888 279.533 708.787 274.267 708.787 268.6C708.787 262.867 708.787 257 708.787 251C708.787 245 708.754 238.967 708.688 232.9C708.688 226.833 708.588 221.033 708.388 215.5C711.121 214.767 714.087 214.233 717.287 213.9C720.554 213.567 723.787 213.533 726.987 213.8C730.254 214.067 733.421 214.667 736.487 215.6C739.554 216.467 742.254 217.8 744.588 219.6C746.988 221.333 748.954 223.533 750.487 226.2ZM737.588 233.7C737.121 232.9 736.454 232.233 735.588 231.7C733.921 230.367 731.987 229.533 729.787 229.2C727.587 228.8 725.421 228.867 723.287 229.4C723.154 229.4 723.054 229.433 722.987 229.5C723.054 230.7 723.054 231.967 722.987 233.3C722.987 234.633 722.987 235.967 722.987 237.3C723.054 238.633 723.121 239.933 723.188 241.2C723.321 242.4 723.554 243.5 723.888 244.5H724.188C725.254 244.433 726.388 244.4 727.588 244.4C728.788 244.333 729.954 244.233 731.088 244.1C732.288 243.967 733.421 243.733 734.487 243.4C735.621 243 736.588 242.4 737.388 241.6C737.921 240.867 738.287 240.033 738.487 239.1C738.754 238.167 738.788 237.233 738.588 236.3C738.454 235.367 738.121 234.5 737.588 233.7Z" fill="black"/>
</svg>
